<?xml version="1.0" standalone="no"?>
<!DOCTYPE svg PUBLIC "-//W3C//DTD SVG 20010904//EN"
 "http://www.w3.org/TR/2001/REC-SVG-20010904/DTD/svg10.dtd">
<svg version="1.0" xmlns="http://www.w3.org/2000/svg"
 width="350.000000pt" height="350.000000pt" viewBox="0 0 350.000000 350.000000"
 preserveAspectRatio="xMidYMid meet">

<g transform="translate(0.000000,350.000000) scale(0.100000,-0.100000)"
fill="#000000" stroke="none">
<path d="M1176 2064 c-21 -20 -20 -39 7 -102 26 -62 137 -222 153 -222 14 0
74 66 74 81 0 6 -6 9 -12 6 -17 -6 -59 24 -132 93 -69 65 -84 95 -60 121 28
31 -1 53 -30 23z"/>
<path d="M2299 1993 c-38 -116 -165 -208 -354 -255 -63 -16 -103 -19 -190 -16
-123 5 -193 25 -270 77 -53 36 -55 36 -55 15 0 -24 -48 -81 -80 -94 -17 -7
-30 -15 -30 -19 0 -38 111 -102 253 -146 75 -23 101 -26 180 -22 144 7 252 38
351 101 84 53 191 172 227 251 29 63 22 145 -12 145 -4 0 -13 -17 -20 -37z
m-124 -198 c-43 -35 -161 -90 -224 -105 -90 -21 -234 -17 -328 9 -49 14 -83
28 -83 36 0 10 15 8 63 -7 89 -29 270 -36 356 -13 68 17 149 55 190 86 37 30
62 24 26 -6z"/>
<path d="M341 1327 c-37 -18 -48 -63 -24 -96 18 -23 28 -26 91 -29 77 -3 105
-19 82 -47 -9 -11 -34 -15 -96 -15 -77 0 -84 -2 -84 -20 0 -19 7 -20 90 -20
101 0 130 15 130 68 0 53 -20 66 -107 72 -66 4 -78 8 -81 24 -6 28 15 36 96
36 65 0 72 2 72 20 0 18 -7 20 -72 20 -40 0 -84 -6 -97 -13z"/>
<path d="M610 1334 c-33 -13 -40 -38 -40 -136 0 -91 1 -98 20 -98 18 0 20 8
22 98 l3 97 49 3 c27 2 60 1 73 -3 27 -6 39 -45 23 -74 -9 -18 -20 -21 -70
-21 -53 0 -60 -2 -60 -20 0 -18 7 -20 59 -20 79 0 111 24 111 85 0 69 -23 89
-106 92 -38 1 -76 0 -84 -3z"/>
<path d="M847 1333 c-4 -3 -7 -57 -7 -120 0 -106 1 -113 20 -113 19 0 20 7 20
120 0 93 -3 120 -13 120 -8 0 -17 -3 -20 -7z"/>
<path d="M954 1314 c-24 -24 -26 -30 -22 -105 4 -103 12 -109 125 -109 76 0
83 2 83 20 0 17 -8 19 -82 22 l-83 3 0 75 0 75 83 3 c74 3 82 5 82 22 0 18 -7
20 -80 20 -73 0 -83 -2 -106 -26z"/>
<path d="M1180 1281 c0 -52 3 -62 26 -80 15 -12 35 -21 45 -21 15 0 19 -8 19
-40 0 -33 3 -40 20 -40 17 0 20 7 20 40 0 36 3 40 25 40 29 0 62 29 70 63 11
42 2 92 -17 95 -15 3 -18 -4 -18 -45 0 -27 -5 -54 -12 -61 -7 -7 -37 -12 -68
-12 -31 0 -61 5 -68 12 -7 7 -12 34 -12 60 0 36 -4 48 -15 48 -12 0 -15 -13
-15 -59z"/>
<path d="M1560 1220 c0 -100 3 -120 15 -120 13 0 15 20 15 120 0 100 -2 120
-15 120 -12 0 -15 -20 -15 -120z"/>
<path d="M1696 1290 c-29 -27 -58 -50 -64 -50 -7 0 -12 -9 -12 -20 0 -11 6
-20 13 -20 7 0 35 -22 62 -50 33 -34 57 -50 74 -50 23 0 20 5 -34 61 l-60 60
58 52 c32 29 57 55 57 60 -1 22 -48 1 -94 -43z"/>
<path d="M1830 1220 c0 -113 1 -120 20 -120 19 0 20 7 20 120 0 113 -1 120
-20 120 -19 0 -20 -7 -20 -120z"/>
<path d="M1910 1320 c0 -17 7 -20 45 -20 l45 0 0 -100 c0 -93 1 -100 20 -100
19 0 20 7 20 100 l0 100 45 0 c38 0 45 3 45 20 0 19 -7 20 -110 20 -103 0
-110 -1 -110 -20z"/>
<path d="M2192 1324 c-20 -14 -22 -24 -22 -104 0 -112 8 -120 122 -120 71 0
78 2 78 20 0 17 -8 19 -82 22 l-83 3 0 75 0 75 83 3 c74 3 82 5 82 22 0 18 -7
20 -78 20 -54 0 -84 -5 -100 -16z"/>
<path d="M2420 1220 c0 -100 3 -120 15 -120 11 0 15 12 15 50 l0 50 80 0 80 0
0 -50 c0 -43 3 -50 20 -50 19 0 20 7 20 121 0 109 -2 120 -17 117 -14 -2 -19
-15 -21 -51 l-3 -47 -80 0 -79 0 0 50 c0 38 -4 50 -15 50 -12 0 -15 -20 -15
-120z"/>
<path d="M2717 1333 c-4 -3 -7 -50 -7 -104 0 -122 6 -129 122 -129 71 0 78 2
78 20 0 17 -8 19 -82 22 l-83 3 -3 78 -3 77 86 0 c78 0 85 2 85 20 0 19 -7 20
-93 20 -52 0 -97 -3 -100 -7z"/>
<path d="M2967 1333 c-4 -3 -7 -57 -7 -120 0 -94 3 -113 15 -113 12 0 15 16
15 80 0 44 3 80 7 80 4 0 44 -37 89 -81 47 -46 87 -79 93 -75 7 5 11 49 11
122 0 105 -2 115 -17 112 -15 -3 -19 -18 -23 -88 l-5 -84 -79 87 c-79 87 -87
93 -99 80z"/>
<path d="M2770 1220 c0 -18 7 -20 60 -20 53 0 60 2 60 20 0 18 -7 20 -60 20
-53 0 -60 -2 -60 -20z"/>
<path d="M1932 948 c-14 -14 -16 -98 -2 -98 6 0 10 20 10 45 0 38 3 45 20 45
11 0 20 5 20 10 0 14 -33 13 -48 -2z"/>
<path d="M2103 905 c0 -33 2 -45 4 -27 2 18 2 45 0 60 -2 15 -4 0 -4 -33z"/>
<path d="M960 930 c-21 -21 -28 -80 -10 -80 6 0 10 5 10 10 0 6 14 10 30 10
17 0 30 -4 30 -10 0 -5 5 -10 10 -10 6 0 10 23 10 50 0 49 -1 50 -30 50 -17 0
-39 -9 -50 -20z m60 -20 c0 -16 -7 -20 -30 -20 -18 0 -30 5 -30 13 0 20 10 27
37 27 16 0 23 -6 23 -20z"/>
<path d="M1181 938 c0 -10 -7 -18 -13 -18 -10 0 -10 -2 -1 -8 6 -4 13 -21 16
-37 l4 -30 2 32 c0 21 7 33 19 36 15 4 15 5 0 6 -9 0 -19 9 -21 19 -4 16 -5
16 -6 0z"/>
<path d="M1521 938 c0 -9 -9 -19 -18 -21 -16 -4 -16 -5 -1 -6 11 -1 18 -12 21
-33 l4 -33 1 32 c1 21 8 33 20 36 15 4 15 5 0 6 -9 0 -19 9 -21 19 -4 15 -5
15 -6 0z"/>
<path d="M1303 913 c19 -3 27 -10 27 -24 0 -14 -7 -19 -27 -18 -24 2 -25 2 -5
6 12 2 22 9 22 14 0 14 -47 11 -53 -4 -9 -23 9 -39 39 -35 25 2 29 8 32 36 3
31 2 32 -30 31 -30 -2 -31 -2 -5 -6z"/>
<path d="M1392 903 c2 -9 14 -20 28 -24 l25 -7 -27 -1 c-37 -1 -36 -21 1 -21
48 0 51 49 3 51 -27 1 -27 1 3 9 l30 8 -33 1 c-27 1 -33 -3 -30 -16z"/>
<path d="M1605 901 c-3 -10 -3 -26 1 -35 8 -20 54 -22 54 -1 0 8 5 15 10 15 6
0 10 9 10 20 0 28 -66 29 -75 1z m65 -1 c0 -5 -9 -10 -19 -10 -11 0 -22 -6
-24 -12 -3 -7 -6 -3 -6 10 -1 17 5 22 24 22 14 0 25 -4 25 -10z"/>
<path d="M1802 888 c3 -29 7 -33 36 -36 31 -3 32 -2 32 32 0 35 -1 36 -36 36
-34 0 -35 -1 -32 -32z m58 2 c0 -15 -7 -20 -25 -20 -18 0 -25 5 -25 20 0 15 7
20 25 20 18 0 25 -5 25 -20z"/>
<path d="M1958 913 c7 -3 16 -2 19 1 4 3 -2 6 -13 5 -11 0 -14 -3 -6 -6z"/>
<path d="M2145 911 c11 -4 23 -21 27 -37 6 -27 6 -27 5 6 -2 30 -6 35 -27 37
-22 2 -23 2 -5 -6z"/>
<path d="M2232 888 c3 -29 7 -33 36 -36 31 -3 32 -2 32 32 0 35 -1 36 -36 36
-34 0 -35 -1 -32 -32z m58 2 c0 -15 -7 -20 -25 -20 -18 0 -25 5 -25 20 0 15 7
20 25 20 18 0 25 -5 25 -20z"/>
<path d="M2352 883 c1 -37 1 -37 5 -5 3 23 9 32 23 32 14 0 20 -9 23 -32 l4
-33 1 33 c1 20 7 32 16 32 9 0 16 -13 19 -32 4 -32 4 -32 5 5 l2 37 -50 0 -50
0 2 -37z"/>
<path d="M2502 888 c2 -25 8 -34 26 -36 14 -2 22 2 22 11 0 8 7 17 15 21 27
10 5 36 -32 36 -33 0 -34 -1 -31 -32z m58 12 c0 -5 -9 -10 -19 -10 -11 0 -22
-6 -24 -12 -3 -7 -6 -3 -6 10 -1 17 5 22 24 22 14 0 25 -4 25 -10z"/>
</g>
</svg>
